<mxfile host="app.diagrams.net" modified="2022-09-03T10:03:17.056Z" agent="5.0 (Windows NT 10.0; Win64; x64) AppleWebKit/537.36 (KHTML, like Gecko) Chrome/104.0.0.0 Safari/537.36" etag="hPeaD6zJpv_s-JprIDgf" version="20.2.8" type="github">
  <diagram id="ZzZShtWu02h0pXEbzJW-" name="Trang-1">
    <mxGraphModel dx="868" dy="450" grid="1" gridSize="10" guides="1" tooltips="1" connect="1" arrows="1" fold="1" page="1" pageScale="1" pageWidth="827" pageHeight="1169" math="0" shadow="0">
      <root>
        <mxCell id="0" />
        <mxCell id="1" parent="0" />
        <mxCell id="JAVGqRVPtkmX173N6Zty-1" value="&lt;b&gt;&lt;font style=&quot;font-size: 18px;&quot;&gt;IoT Data&lt;/font&gt;&lt;/b&gt;" style="whiteSpace=wrap;html=1;aspect=fixed;strokeWidth=5;" vertex="1" parent="1">
          <mxGeometry x="39" y="320" width="80" height="80" as="geometry" />
        </mxCell>
        <mxCell id="JAVGqRVPtkmX173N6Zty-5" value="&lt;b&gt;&lt;font style=&quot;font-size: 18px;&quot;&gt;Kafka&lt;/font&gt;&lt;/b&gt;" style="whiteSpace=wrap;html=1;aspect=fixed;strokeWidth=5;" vertex="1" parent="1">
          <mxGeometry x="199" y="320" width="80" height="80" as="geometry" />
        </mxCell>
        <mxCell id="JAVGqRVPtkmX173N6Zty-6" value="&lt;b&gt;&lt;font style=&quot;font-size: 18px;&quot;&gt;Spark&lt;/font&gt;&lt;/b&gt;" style="whiteSpace=wrap;html=1;aspect=fixed;strokeWidth=5;" vertex="1" parent="1">
          <mxGeometry x="359" y="320" width="80" height="80" as="geometry" />
        </mxCell>
        <mxCell id="JAVGqRVPtkmX173N6Zty-9" value="&lt;b&gt;Cassandra&lt;/b&gt;" style="shape=cylinder3;whiteSpace=wrap;html=1;boundedLbl=1;backgroundOutline=1;size=15;strokeWidth=5;fontSize=18;" vertex="1" parent="1">
          <mxGeometry x="519" y="305" width="100" height="110" as="geometry" />
        </mxCell>
        <mxCell id="JAVGqRVPtkmX173N6Zty-10" value="&lt;b&gt;Zeppelin&lt;/b&gt;" style="rounded=0;whiteSpace=wrap;html=1;strokeWidth=5;fontSize=18;direction=south;" vertex="1" parent="1">
          <mxGeometry x="699" y="300" width="90" height="120" as="geometry" />
        </mxCell>
        <mxCell id="JAVGqRVPtkmX173N6Zty-11" value="" style="shape=flexArrow;endArrow=classic;html=1;rounded=0;fontSize=18;exitX=1;exitY=0.5;exitDx=0;exitDy=0;" edge="1" parent="1" source="JAVGqRVPtkmX173N6Zty-1">
          <mxGeometry width="50" height="50" relative="1" as="geometry">
            <mxPoint x="149" y="359.5" as="sourcePoint" />
            <mxPoint x="199" y="359.5" as="targetPoint" />
          </mxGeometry>
        </mxCell>
        <mxCell id="JAVGqRVPtkmX173N6Zty-12" value="" style="shape=flexArrow;endArrow=classic;html=1;rounded=0;fontSize=18;exitX=1;exitY=0.5;exitDx=0;exitDy=0;" edge="1" parent="1">
          <mxGeometry width="50" height="50" relative="1" as="geometry">
            <mxPoint x="279" y="360" as="sourcePoint" />
            <mxPoint x="359" y="359.5" as="targetPoint" />
          </mxGeometry>
        </mxCell>
        <mxCell id="JAVGqRVPtkmX173N6Zty-13" value="" style="shape=flexArrow;endArrow=classic;html=1;rounded=0;fontSize=18;exitX=1;exitY=0.5;exitDx=0;exitDy=0;" edge="1" parent="1">
          <mxGeometry width="50" height="50" relative="1" as="geometry">
            <mxPoint x="439" y="360" as="sourcePoint" />
            <mxPoint x="519" y="359.5" as="targetPoint" />
          </mxGeometry>
        </mxCell>
        <mxCell id="JAVGqRVPtkmX173N6Zty-14" value="" style="shape=flexArrow;endArrow=classic;html=1;rounded=0;fontSize=18;exitX=1;exitY=0.5;exitDx=0;exitDy=0;" edge="1" parent="1">
          <mxGeometry width="50" height="50" relative="1" as="geometry">
            <mxPoint x="619" y="360" as="sourcePoint" />
            <mxPoint x="699" y="359.5" as="targetPoint" />
          </mxGeometry>
        </mxCell>
        <mxCell id="JAVGqRVPtkmX173N6Zty-15" value="&lt;b&gt;&lt;font style=&quot;font-size: 18px;&quot;&gt;Spark SQL&lt;/font&gt;&lt;/b&gt;" style="whiteSpace=wrap;html=1;aspect=fixed;strokeWidth=5;" vertex="1" parent="1">
          <mxGeometry x="359" y="160" width="80" height="80" as="geometry" />
        </mxCell>
        <mxCell id="JAVGqRVPtkmX173N6Zty-16" value="&lt;b&gt;&lt;font style=&quot;font-size: 18px;&quot;&gt;Spark Streaming&lt;/font&gt;&lt;/b&gt;" style="whiteSpace=wrap;html=1;aspect=fixed;strokeWidth=5;" vertex="1" parent="1">
          <mxGeometry x="349" y="470" width="100" height="100" as="geometry" />
        </mxCell>
        <mxCell id="JAVGqRVPtkmX173N6Zty-17" value="" style="endArrow=classic;html=1;rounded=0;fontSize=18;entryX=0.5;entryY=0;entryDx=0;entryDy=0;strokeWidth=3;" edge="1" parent="1" target="JAVGqRVPtkmX173N6Zty-6">
          <mxGeometry width="50" height="50" relative="1" as="geometry">
            <mxPoint x="400" y="240" as="sourcePoint" />
            <mxPoint x="439" y="260" as="targetPoint" />
          </mxGeometry>
        </mxCell>
        <mxCell id="JAVGqRVPtkmX173N6Zty-21" value="" style="endArrow=classic;html=1;rounded=0;fontSize=18;exitX=0.5;exitY=0;exitDx=0;exitDy=0;entryX=0.5;entryY=1;entryDx=0;entryDy=0;strokeWidth=3;" edge="1" parent="1" source="JAVGqRVPtkmX173N6Zty-16" target="JAVGqRVPtkmX173N6Zty-6">
          <mxGeometry width="50" height="50" relative="1" as="geometry">
            <mxPoint x="309" y="390" as="sourcePoint" />
            <mxPoint x="389" y="389.5" as="targetPoint" />
          </mxGeometry>
        </mxCell>
      </root>
    </mxGraphModel>
  </diagram>
</mxfile>
